<?xml version="1.0" encoding="utf-8"?><!DOCTYPE svg PUBLIC "-//W3C//DTD SVG 1.1//EN" "http://www.w3.org/Graphics/SVG/1.1/DTD/svg11.dtd"><svg version="1.1" id="layer1" xmlns="http://www.w3.org/2000/svg" xmlns:xlink="http://www.w3.org/1999/xlink" x="0px" y="0px" viewBox="0 0 200 200" enable-background="new 0 0 200 200" xml:space="preserve"><g><path fill="#FFFFFF" d="M94.8,70.4C87.6,69,84.2,72.8,83.2,79c-0.8,4.6,0.2,12,7.2,13.2s11.6-1.2,12.4-9.6C103.2,77.8,100.6,71.6,94.8,70.4z M92.2,87.8c-4.6-0.4-4.6-6-3.8-9.4c0.8-3.4,3.6-4.6,5.6-3.6c1.6,0.8,3.2,3.4,3.2,6.2C97.4,84.4,96.8,88,92.2,87.8z"/><path fill="#FFFFFF" d="M92.2,64c4.4-2,6.4-4,3.6-5.8c-1.4-1-3.2,1.4-6.6,1.6c-3.4,0.2-5-1.8-4.6-6.4c0.6-4.6,6.6-4,9-4.2c3.2-0.2,3.2-3.8-1.4-4.8c-4.6-0.8-9.4,1.4-11,3.8c-3,4.4-2.8,9.8,0.6,13.8C84.8,65.4,89,65.4,92.2,64z"/><path fill="#FFFFFF" d="M146.2,104c35.6-8.2,51.8-26.6,45.8-50.2c-5.6-22.4-37.4-28.6-60-28.6c-15.8,0-103.8,6.4-124.6,7.8c-1.8,0.2,1.2,11,4.4,11c4.8,0,23.4,0,25.4,3c4,5.8,13,89.8,10.4,93.2c-2.6,3.4-20,2.2-23.2,4c-3.2,1.6-2.4,8.2,3.4,9.2c6,1,99,0.4,101.2,0.4c1.6,0,0.2-2.8-2-4.4c-0.6-0.4-1.4-0.8-2-1.2c-0.2-2.4-0.4-6.2-0.4-8.8c0-1.8,1-2.8,1.6-3.4c1.6-1,2.8-1.2,5.2-1.4c-1.6,4.2-1.4,12.2,4.6,16.4c6.6,4.6,16.6,4.2,20.6-2c3.8-5.8,2.2-16.4-5.6-20.4c-6.2-3.2-11.4-2.2-15,0.4c-1.6-0.4-4.4-0.6-7,0c-2.4,0.4-4.4,1.6-6.6,2c-2.4,0.4-4.8-0.8-6,0s1,3.6,1.6,4.8c0.6,1,0.6,3.4-0.2,9.8c-5-1.4-11-2.2-17-1.8c-12.2,0.6-16.2-0.8-18.6-9.2c-2.2-7.4-3.2-23.4-3.8-28.2C84,108,116.2,110.8,146.2,104z M137.2,136.4c1.2-2.2,4.2-4.2,7-3.4c5.8,1.4,6.8,6.8,6.6,9.4c-0.2,2.6-2,6.8-7.8,5.6C137,146.8,134.6,140.8,137.2,136.4z M71,81c-2.4,5-2.6,10-3.4,12.4c-0.8,2.6-4.4,4.6-6.4,3.2c-2.2-1.6-3.6-8.4-4-9.6c-0.4,1.4-1.6,11.8-4.6,13c-1.4,0.4-3.6-0.6-4-2.8c-0.4-3.4,1-7.6,1.6-10.4s3.4-10.6,5-12.4s4.2-1.6,5.6,0.2c1.4,1.6,1.6,6,2,9.4c0.4-2.4,2.4-6.8,3.2-8.2c1.8-3.2,5.6-6.8,9.4-8.2c3.8-1.4,4.2,2.4,3.4,4.6C78,74,73.6,75.8,71,81z M77,94.6c0,0-0.8-7.2-1.6-16.2c0.8-0.8,1.6-1.6,2.4-2.4c1.4-1.2,2.6-2.2,3-3.6c0.6-1.8,0.8-4.2-0.4-6c-1.2-1.6-3.2-2.2-5.6-1.2c-0.2,0-0.4,0.2-0.6,0.2c-1-11.4-1.8-22-1.4-22.2c8.4-3.4,22.4-4.8,33.4-4.8c14.4-0.2,40.2,0.8,43.4,21.6c3.4,23.2-10.2,28.8-23.4,32.8C113.4,96.8,89.4,96.8,77,94.6z"/></g></svg>